<svg fill="none" height="32" viewBox="0 0 32 32" width="32" xmlns="http://www.w3.org/2000/svg"><g fill="#b4f9f8"><path d="m1 13.6563c0-1.8113 1.47-3.2813 3.28125-3.2813h2.8125c.37296 0 .73065.1482.99437.4119s.41188.6214.41188.9944c0 .3729-.14816.7306-.41188.9943s-.62141.4119-.99437.4119h-2.8125c-.12432 0-.24355.0494-.33146.1373-.0879.0879-.13729.2071-.13729.3315v14.0625c0 .2587.21.4687.46875.4687h14.06255c.1243 0 .2435-.0494.3314-.1373s.1373-.2071.1373-.3314v-2.8125c0-.373.1482-.7307.4119-.9944s.6214-.4119.9944-.4119c.3729 0 .7306.1482.9943.4119s.4119.6214.4119.9944v2.8125c0 .8702-.3457 1.7048-.9611 2.3201-.6153.6154-1.4499.9611-2.3201.9611h-14.06255c-.87024 0-1.70484-.3457-2.32019-.9611-.61536-.6153-.96106-1.4499-.96106-2.3201z"/><path d="m10.375 4.28125c0-1.81125 1.47-3.28125 3.2813-3.28125h14.0625c1.8112 0 3.2812 1.47 3.2812 3.28125v14.06255c0 .8702-.3457 1.7048-.9611 2.3201-.6153.6154-1.4499.9611-2.3201.9611h-14.0625c-.8703 0-1.7049-.3457-2.3202-.9611-.6154-.6153-.9611-1.4499-.9611-2.3201zm3.2813-.46875c-.1244 0-.2436.04939-.3315.13729-.0879.08791-.1373.20714-.1373.33146v14.06255c0 .2587.21.4687.4688.4687h14.0625c.1243 0 .2435-.0494.3314-.1373s.1373-.2071.1373-.3314v-14.06255c0-.12432-.0494-.24355-.1373-.33146-.0879-.0879-.2071-.13729-.3314-.13729z"/></g></svg>